<?xml version="1.0" standalone="no"?>
<!DOCTYPE svg PUBLIC "-//W3C//DTD SVG 20010904//EN"
 "http://www.w3.org/TR/2001/REC-SVG-20010904/DTD/svg10.dtd">
<svg version="1.0" xmlns="http://www.w3.org/2000/svg"
 width="384.000000pt" height="384.000000pt" viewBox="0 0 384.000000 384.000000"
 preserveAspectRatio="xMidYMid meet">
<metadata>
Created by potrace 1.14, written by Peter Selinger 2001-2017
</metadata>
<g transform="translate(0.000000,384.000000) scale(0.100000,-0.100000)"
fill="#000000" stroke="none">
<path d="M1492 3389 c-152 -19 -339 -83 -443 -151 -79 -51 -195 -162 -259
-248 -129 -174 -198 -345 -299 -745 -8 -31 -22 -50 -60 -78 -109 -83 -216
-217 -263 -329 -20 -47 -23 -70 -22 -193 0 -98 5 -158 17 -201 16 -58 16 -66
-4 -175 -25 -141 -68 -271 -120 -367 l-39 -74 0 -414 0 -414 320 0 320 0 0 38
c0 90 51 173 118 191 l32 10 0 -120 c0 -99 3 -119 15 -119 12 0 15 19 15 108
0 75 4 114 13 127 12 15 13 6 9 -63 -2 -44 -1 -101 2 -126 6 -40 10 -46 31
-46 23 0 23 2 18 54 l-6 54 102 -28 c56 -15 110 -35 121 -45 29 -26 45 -14 21
17 -16 20 -41 31 -113 48 -130 32 -125 28 -118 94 3 30 8 57 10 59 3 2 58 20
123 41 85 27 121 43 132 59 30 46 55 143 66 253 l12 113 106 -101 c108 -103
224 -188 285 -208 30 -10 35 -17 41 -53 9 -54 14 -59 93 -103 37 -20 69 -39
71 -41 3 -2 -26 -34 -63 -72 -78 -79 -70 -76 -327 -90 -80 -5 -155 -14 -167
-20 -29 -16 -29 -35 1 -26 12 3 87 10 167 15 80 5 152 11 160 13 8 3 29 8 45
12 l30 7 -24 -26 -24 -26 33 0 c28 0 49 15 136 96 57 53 104 90 104 84 0 -7
-37 -50 -82 -96 -63 -65 -77 -84 -61 -84 13 0 44 25 79 62 83 90 100 103 118
85 8 -8 52 -26 98 -41 46 -14 110 -44 143 -66 l60 -40 335 0 336 0 17 106 c10
58 27 140 38 182 20 78 93 242 108 242 5 0 14 -7 22 -16 7 -9 41 -30 75 -47
l63 -32 -65 -200 c-36 -110 -68 -208 -71 -217 -4 -15 1 -18 35 -18 l40 0 56
173 c31 94 59 187 62 205 6 31 9 32 53 32 45 0 171 -49 171 -67 0 -4 -14 -53
-30 -108 -27 -87 -60 -216 -60 -231 0 -3 16 -4 36 -2 l36 3 28 110 c16 61 37
136 49 167 17 50 19 68 11 143 -6 56 -5 107 2 148 6 34 11 121 12 192 1 173
-22 258 -99 366 -33 47 -66 82 -85 90 -17 8 -42 31 -56 52 -16 24 -35 40 -54
43 -47 10 -69 43 -86 130 -20 106 -20 303 1 385 9 35 42 141 73 234 54 163 56
174 56 275 1 99 -2 110 -37 195 -81 195 -180 338 -365 527 -140 143 -272 243
-381 289 -66 27 -83 31 -152 27 -68 -3 -83 -7 -123 -35 -38 -27 -50 -31 -73
-23 -51 17 -226 49 -353 65 -132 16 -294 18 -398 4z m1108 -119 c105 -53 260
-177 260 -207 0 -10 -23 6 -59 40 -55 53 -90 76 -61 42 29 -35 -10 -11 -79 49
-41 35 -93 74 -117 86 -24 12 -44 23 -44 25 0 7 56 -13 100 -35z m-1350 -29
c0 -5 -7 -12 -16 -15 -9 -4 -15 -8 -13 -11 3 -2 38 5 79 15 82 21 124 25 115
11 -8 -14 -207 -143 -212 -138 -2 3 20 25 49 51 62 55 47 59 -41 11 -65 -35
-84 -38 -61 -10 7 8 9 15 6 15 -13 0 -91 -43 -124 -68 -62 -48 -42 -14 23 38
97 77 195 128 195 101z m270 -4 c0 -10 -162 -101 -205 -115 -28 -9 87 82 130
103 57 28 75 31 75 12z m184 -50 c17 -13 17 -15 -10 -37 -28 -22 -28 -23 -4
-16 14 5 50 10 80 12 44 4 62 1 89 -16 18 -12 32 -22 30 -24 -2 -2 -40 -6 -84
-10 -73 -5 -78 -5 -55 9 35 20 13 18 -55 -5 -32 -11 -64 -20 -72 -20 -19 0
-16 23 8 54 l20 26 -39 0 c-22 0 -58 -7 -81 -15 -23 -8 -39 -10 -36 -5 11 18
67 42 114 50 68 11 76 11 95 -3z m247 -127 l24 -20 -60 6 c-47 5 -72 2 -113
-14 -64 -24 -65 -8 -2 25 55 29 119 30 151 3z m1007 -82 c66 -69 114 -126 94
-114 -7 4 -12 2 -12 -5 0 -9 -3 -9 -14 0 -15 13 -137 181 -131 181 1 0 30 -28
63 -62z m-818 -234 c280 -44 523 -139 656 -258 64 -57 62 -37 25 -245 -12 -62
-21 -131 -21 -153 0 -34 -3 -39 -17 -33 -167 68 -337 82 -383 32 -25 -26 -35
-56 -23 -68 6 -6 72 -11 149 -12 122 -2 146 -6 199 -28 l60 -25 -2 -83 c-2
-46 -4 -85 -6 -87 -2 -2 -23 7 -48 19 -33 16 -62 22 -114 22 -115 0 -221 -61
-339 -194 -53 -59 -57 -52 -31 54 18 76 18 80 1 65 -15 -12 -40 -72 -50 -121
l-6 -27 -107 33 -107 32 -26 79 c-41 120 -77 183 -141 245 -68 68 -141 99
-228 99 -67 0 -117 -14 -148 -43 -13 -12 -30 -17 -43 -14 -13 3 -20 0 -20 -9
0 -16 -16 -19 -25 -4 -3 6 -11 10 -17 10 -10 0 -7 -29 7 -63 6 -13 4 -16 -9
-11 -21 8 -20 2 10 -58 l26 -52 -23 16 c-13 8 -51 30 -84 48 -33 19 -61 34
-63 36 -2 1 10 28 27 60 16 33 35 79 42 102 11 36 23 51 72 84 128 87 317 292
444 482 l67 98 100 -6 c56 -4 144 -14 196 -22z m878 -129 c5 -60 13 -68 30
-30 6 14 15 25 20 25 14 0 32 -47 38 -106 7 -56 24 -57 24 -2 0 15 5 30 11 34
23 14 5 -100 -21 -136 l-24 -34 -7 24 c-4 14 -8 45 -9 70 -1 25 -5 54 -9 65
-7 18 -9 18 -23 -10 -9 -17 -25 -39 -37 -49 l-21 -19 0 123 c0 94 3 121 12
112 6 -6 13 -36 16 -67z m243 -166 c11 -35 13 -37 25 -21 11 14 13 14 14 2 0
-8 3 -26 7 -39 4 -17 3 -22 -5 -17 -8 4 -12 0 -12 -11 0 -11 -7 -28 -15 -39
-14 -18 -14 -18 -15 11 -1 17 -7 48 -15 70 l-13 40 -7 -33 c-12 -52 -25 -48
-25 8 0 97 36 114 61 29z m-2426 -255 c36 -17 65 -50 109 -126 l27 -46 -31 -7
c-17 -4 -33 -5 -34 -3 -1 1 -14 24 -29 49 -35 61 -90 109 -125 108 l-27 0 22
-16 23 -15 -32 -22 c-52 -34 -71 -141 -44 -241 4 -12 -2 -30 -15 -44 -25 -31
-33 -21 -50 59 -23 109 11 268 65 305 27 20 100 19 141 -1z m-265 -53 c0 -12
-150 -135 -168 -138 -18 -2 59 79 112 118 40 30 56 36 56 20z m925 -242 c22
-5 63 -16 90 -24 l50 -14 -3 -50 c-2 -27 1 -58 7 -70 11 -20 9 -21 -28 -21
-28 0 -58 11 -100 36 -49 29 -63 44 -77 79 -17 46 -14 75 8 75 7 0 31 -5 53
-11z m-467 -56 c14 -45 46 -60 58 -28 10 26 21 17 57 -53 l36 -68 181 -69
c161 -62 183 -74 202 -103 19 -31 19 -39 9 -108 -6 -41 -11 -112 -11 -157 0
-100 26 -163 95 -226 33 -30 39 -41 27 -44 -10 -2 -27 1 -39 6 -28 12 -53 3
-53 -21 0 -25 19 -42 47 -42 18 0 29 -13 52 -59 41 -81 73 -116 134 -145 81
-40 126 -43 189 -14 30 14 71 40 93 59 26 23 48 34 69 34 26 0 31 4 31 25 0
20 -6 26 -28 28 -21 3 -31 12 -42 39 -20 47 -20 46 18 62 47 21 144 123 215
229 64 94 81 105 116 79 15 -11 20 -36 26 -153 5 -85 15 -157 25 -184 9 -25
13 -55 11 -66 -9 -34 -227 -237 -326 -303 -112 -75 -230 -132 -284 -138 -51
-6 -181 18 -257 46 -89 34 -165 88 -293 212 -130 124 -343 396 -397 504 -35
73 -53 194 -40 275 11 65 1 81 -59 99 -44 13 -45 31 -2 31 25 0 25 1 9 17 -11
11 -33 18 -63 18 -42 0 -49 4 -85 45 -43 50 -49 66 -19 50 11 -6 30 -8 43 -5
14 4 32 -1 47 -13 38 -29 56 -32 80 -15 20 14 22 21 16 74 -5 41 -3 68 8 94
14 33 18 36 52 33 34 -3 39 -7 52 -45z m883 -124 c14 -27 2 -39 -33 -32 -26 5
-26 6 -11 29 19 30 29 30 44 3z m540 -75 c36 -6 37 -7 36 -53 -1 -78 47 -127
124 -125 51 2 88 27 107 75 16 42 36 48 56 17 13 -21 -18 -58 -82 -95 l-43
-25 -67 16 c-123 31 -242 78 -263 104 -24 31 -21 41 21 70 35 23 52 26 111 16z
m559 -44 c0 -27 -4 -50 -10 -50 -11 0 -13 42 -4 78 10 35 14 26 14 -28z
m-1310 20 c12 -7 8 -10 -15 -10 -16 0 -37 5 -45 10 -12 7 -8 10 15 10 17 0 37
-5 45 -10z m897 -6 c-3 -3 -12 -4 -19 -1 -8 3 -5 6 6 6 11 1 17 -2 13 -5z
m-1755 -11 c-21 -8 -44 -63 -38 -89 4 -13 16 -33 28 -44 25 -23 9 -26 -31 -5
-31 16 -41 33 -41 71 0 32 42 74 72 73 13 0 17 -3 10 -6z m1146 -44 c116 -25
287 -102 321 -145 29 -37 23 -73 -31 -182 -89 -179 -216 -248 -391 -212 -77
16 -143 49 -182 90 l-30 31 28 -5 c16 -3 25 -1 22 5 -4 5 -13 9 -21 9 -8 0
-14 4 -14 9 0 6 19 2 43 -8 49 -21 182 -38 172 -21 -4 6 14 10 52 10 53 0 60
2 78 30 11 17 28 33 37 36 22 7 88 70 113 107 13 21 20 25 26 15 6 -9 11 -6
17 12 13 33 2 38 -100 51 -46 5 -108 14 -138 19 -34 6 -92 6 -150 0 -123 -12
-170 -12 -170 0 0 25 45 126 66 147 19 19 33 23 89 23 36 0 109 -9 163 -21z
m999 -41 c-3 -8 -6 -5 -6 6 -1 11 2 17 5 13 3 -3 4 -12 1 -19z m-197 -78 c0
-15 -7 -20 -27 -20 l-28 1 24 19 c29 25 31 25 31 0z m-2004 -101 c8 -14 -18
-31 -30 -19 -9 9 0 30 14 30 5 0 12 -5 16 -11z m2076 -35 c46 -11 66 -19 57
-24 -7 -5 -16 -7 -19 -5 -3 2 -64 -5 -135 -15 -72 -9 -131 -16 -133 -15 -7 6
28 63 40 68 27 11 122 6 190 -9z m388 -3 c5 -11 6 -22 2 -25 -14 -8 -46 20
-38 32 11 17 24 15 36 -7z m-283 -27 c-3 -3 -12 -4 -19 -1 -8 3 -5 6 6 6 11 1
17 -2 13 -5z m371 -26 c22 -22 12 -29 -18 -13 -16 9 -30 18 -30 20 0 10 36 5
48 -7z m-142 -135 c15 -78 -66 -284 -114 -291 -13 -2 -26 -10 -29 -18 -3 -8
-29 -21 -57 -29 -47 -14 -56 -14 -90 0 -40 17 -91 11 -65 -7 10 -6 6 -7 -11
-2 -14 4 -27 9 -30 13 -3 3 -14 8 -25 9 -29 5 -38 17 -30 42 4 13 12 19 21 16
8 -3 14 -2 14 2 0 4 20 7 45 8 27 0 42 -3 38 -9 -4 -7 1 -8 13 -3 10 5 26 10
34 12 74 16 75 16 56 23 -15 6 -6 15 49 51 37 24 78 61 92 81 13 20 34 39 45
42 19 5 20 11 15 62 -5 48 -4 55 8 45 8 -7 17 -28 21 -47z m287 -15 c87 -120
108 -282 70 -554 l-16 -120 -61 24 c-33 14 -89 27 -125 30 -44 3 -85 15 -131
38 -57 28 -74 42 -113 98 -46 65 -46 66 -24 77 12 6 33 22 47 35 23 21 29 23
65 13 54 -15 106 -42 129 -68 21 -23 36 -19 36 9 0 25 -55 66 -114 86 -42 15
-45 18 -40 42 4 15 17 48 30 73 l23 46 58 -9 c31 -5 90 -20 130 -33 41 -14 78
-25 83 -25 19 0 10 21 -15 32 -20 9 -25 19 -25 47 0 42 -30 111 -65 153 -14
16 -25 41 -25 55 0 41 30 24 83 -49z m-167 47 c18 -14 18 -14 -7 -15 -14 0
-34 7 -45 15 -18 14 -18 14 7 15 14 0 34 -7 45 -15z m108 -132 c19 -38 21 -83
4 -83 -26 0 -35 16 -41 65 -3 28 -9 61 -13 75 l-7 25 20 -25 c11 -14 28 -39
37 -57z m-84 13 c0 -7 3 -28 6 -45 5 -23 3 -31 -7 -31 -24 0 -36 14 -43 47 -6
25 -4 32 11 36 31 8 33 7 33 -7z"/>
<path d="M1523 2213 c-42 -14 -143 -96 -133 -107 3 -3 35 4 70 16 130 42 264
17 463 -84 54 -27 104 -47 112 -44 8 3 17 17 21 31 10 41 -22 75 -114 121
-152 77 -317 104 -419 67z"/>
<path d="M657 54 c-4 -4 -7 -18 -7 -31 0 -17 6 -23 21 -23 16 0 20 5 17 27 -3
26 -18 39 -31 27z"/>
</g>
</svg>
