<?xml version="1.0" standalone="no"?>
<!DOCTYPE svg PUBLIC "-//W3C//DTD SVG 20010904//EN"
 "http://www.w3.org/TR/2001/REC-SVG-20010904/DTD/svg10.dtd">
<svg version="1.0" xmlns="http://www.w3.org/2000/svg"
 width="398.000000pt" height="398.000000pt" viewBox="0 0 398.000000 398.000000"
 preserveAspectRatio="xMidYMid meet">
<metadata>
Created by potrace 1.14, written by Peter Selinger 2001-2017
</metadata>
<g transform="translate(0.000000,398.000000) scale(0.100000,-0.100000)"
fill="#000000" stroke="none">
<path d="M1510 3504 c-125 -20 -309 -82 -401 -136 -96 -56 -248 -208 -321
-318 -113 -172 -169 -308 -242 -593 -41 -159 -47 -172 -78 -196 -57 -44 -183
-174 -219 -226 -109 -161 -130 -333 -68 -567 5 -20 7 -50 4 -65 -45 -249 -63
-309 -136 -454 l-49 -99 0 -425 0 -425 1520 0 1520 0 4 23 c60 314 85 402 137
487 26 43 34 49 41 36 5 -9 42 -33 81 -52 40 -20 73 -37 74 -38 3 -3 -35 -132
-86 -287 -28 -86 -51 -159 -51 -163 0 -3 92 -6 205 -6 l205 0 6 28 c6 27 52
208 58 227 2 6 6 17 9 25 18 48 28 91 22 101 -11 16 -10 184 0 264 15 114 11
255 -10 346 -16 68 -29 99 -74 164 -59 86 -87 114 -113 115 -9 0 -19 9 -23 19
-8 25 -71 81 -90 81 -50 0 -83 109 -91 293 -6 160 3 206 123 572 21 64 26 101
27 185 1 121 -7 148 -88 315 -72 146 -181 292 -340 451 -295 294 -513 382
-673 271 -37 -26 -39 -26 -93 -12 -30 8 -109 23 -175 34 -66 11 -136 23 -155
26 -80 14 -366 13 -460 -1z"/>
</g>
</svg>
